<?xml version="1.0" standalone="no"?>
<!DOCTYPE svg PUBLIC "-//W3C//DTD SVG 20010904//EN"
 "http://www.w3.org/TR/2001/REC-SVG-20010904/DTD/svg10.dtd">
<svg version="1.0" xmlns="http://www.w3.org/2000/svg"
 width="465.000000pt" height="141.000000pt" viewBox="0 0 465.000000 141.000000"
 preserveAspectRatio="xMidYMid meet">

<g transform="translate(0.000000,141.000000) scale(0.100000,-0.100000)"
fill="#000000" stroke="none">
<path d="M510 1029 c-78 -24 -157 -108 -182 -193 -18 -63 -15 -202 7 -265 24
-73 92 -142 158 -160 62 -18 161 -10 213 17 45 23 100 80 115 119 17 47 21 73
10 73 -6 0 -13 -12 -17 -27 -13 -55 -54 -112 -100 -139 -60 -35 -164 -44 -228
-20 -83 32 -141 125 -148 236 l-3 45 259 3 258 2 -7 58 c-12 106 -71 199 -149
236 -44 21 -141 28 -186 15z m149 -25 c91 -27 144 -99 167 -226 l6 -38 -250 0
-251 0 6 38 c8 59 60 159 99 188 69 53 135 64 223 38z"/>
<path d="M1680 1031 c-71 -22 -122 -66 -158 -136 l-21 -40 -1 83 c0 48 -4 82
-10 82 -7 0 -10 -143 -10 -410 0 -267 3 -410 10 -410 6 0 10 71 10 193 1 179
2 190 16 157 40 -92 107 -139 210 -148 114 -9 193 37 246 145 31 64 33 74 33
173 0 99 -2 109 -33 173 -19 39 -47 78 -67 93 -60 45 -159 65 -225 45z m184
-45 c173 -101 164 -452 -14 -543 -81 -41 -187 -28 -257 32 -67 57 -87 111 -88
235 0 95 3 110 28 162 32 66 92 122 145 137 57 16 137 6 186 -23z"/>
<path d="M2320 1031 c-70 -22 -118 -62 -144 -121 l-15 -35 -1 73 c0 41 -4 72
-10 72 -6 0 -10 -108 -10 -305 0 -197 4 -305 10 -305 6 0 10 73 10 198 0 237
9 282 73 346 40 40 98 66 146 66 11 0 21 5 21 10 0 11 -43 12 -80 1z"/>
<path d="M2630 1029 c-78 -24 -157 -108 -182 -193 -18 -63 -15 -202 7 -265 24
-73 92 -142 158 -160 62 -18 161 -10 213 17 45 23 100 80 115 119 17 47 21 73
10 73 -6 0 -13 -12 -17 -27 -13 -55 -54 -112 -100 -139 -60 -35 -164 -44 -228
-20 -83 32 -141 125 -148 236 l-3 45 259 3 258 2 -7 58 c-12 106 -71 199 -149
236 -44 21 -141 28 -186 15z m149 -25 c91 -27 144 -99 167 -226 l6 -38 -250 0
-251 0 6 38 c8 59 60 159 99 188 69 53 135 64 223 38z"/>
<path d="M3208 1031 c-109 -36 -158 -143 -103 -227 22 -33 60 -51 184 -83 177
-47 214 -74 214 -157 0 -84 -63 -134 -178 -142 -116 -7 -192 27 -226 102 -10
23 -19 53 -19 69 0 15 -4 27 -10 27 -16 0 -11 -62 9 -106 37 -81 126 -121 250
-112 124 9 196 71 194 168 -1 90 -38 118 -222 169 -142 40 -169 54 -187 96
-18 44 -18 59 2 101 20 43 100 84 162 84 111 0 182 -43 204 -124 13 -49 28
-61 28 -23 0 45 -43 111 -88 135 -46 26 -166 38 -214 23z"/>
<path d="M3788 1031 c-109 -36 -158 -143 -103 -227 22 -33 60 -51 184 -83 177
-47 214 -74 214 -157 0 -84 -63 -134 -178 -142 -116 -7 -192 27 -226 102 -10
23 -19 53 -19 69 0 15 -4 27 -10 27 -16 0 -11 -62 9 -106 37 -81 126 -121 250
-112 124 9 196 71 194 168 -1 90 -38 118 -222 169 -142 40 -169 54 -187 96
-18 44 -18 59 2 101 20 43 100 84 162 84 111 0 182 -43 204 -124 13 -49 28
-61 28 -23 0 45 -43 111 -88 135 -46 26 -166 38 -214 23z"/>
<path d="M920 1015 c0 -3 47 -69 105 -146 l106 -140 -114 -147 c-130 -169
-132 -172 -118 -172 6 0 63 68 127 151 95 122 119 148 129 137 9 -9 152 -195
221 -287 2 -1 8 -1 14 1 6 2 -31 57 -82 123 -52 66 -106 137 -122 158 l-28 37
106 139 c58 77 106 142 106 145 0 22 -30 -11 -120 -129 -57 -74 -104 -135
-106 -135 -2 0 -49 61 -105 135 -87 117 -119 152 -119 130z"/>
</g>
</svg>
