<svg width="294" height="294" viewBox="0 0 294 294" fill="none" xmlns="http://www.w3.org/2000/svg">
<rect width="158" height="162" transform="translate(65 63)" fill="white"/>
<path d="M146.183 0.00139928C117.145 0.162727 88.8046 8.92122 64.7383 25.1716C40.672 41.4219 21.9577 64.4362 10.9568 91.3108C-0.0441856 118.185 -2.83901 147.716 2.9249 176.177C8.68882 204.639 22.7533 230.755 43.3438 251.232C63.9342 271.709 90.1281 285.628 118.621 291.235C147.113 296.841 176.628 293.882 203.442 282.732C230.255 271.583 253.165 252.741 269.282 228.585C285.398 204.429 294 176.041 294 147.002C293.977 127.635 290.132 108.463 282.685 90.5856C275.239 72.7077 264.337 56.4754 250.605 42.819C236.873 29.1627 220.58 18.3508 202.661 11.0034C184.743 3.65588 165.55 -0.083051 146.183 0.00139928ZM152.483 86.6852C160.067 78.2851 171.733 76.36 178.558 82.485C185.383 88.61 184.8 100.393 177.275 108.793C169.75 117.193 158.025 119.119 151.142 112.994C144.258 106.869 144.725 95.0852 152.483 86.6852ZM106.669 91.1186C106.721 91.1186 106.77 91.0967 106.805 91.0585C108.926 88.7556 111.654 87.0977 114.676 86.2768C117.725 85.4487 120.946 85.5062 123.963 86.4427C126.98 87.3792 129.668 89.1559 131.711 91.5647C133.755 93.9734 135.07 96.9146 135.503 100.044C135.935 103.173 135.468 106.361 134.154 109.233C132.84 112.106 130.736 114.545 128.086 116.265C125.436 117.985 122.351 118.915 119.193 118.945C116.034 118.975 112.932 118.104 110.25 116.435C106.443 113.538 103.925 109.263 103.238 104.528C102.555 99.8245 103.733 95.0414 106.52 91.1943C106.554 91.1466 106.61 91.1186 106.669 91.1186V91.1186ZM165.703 175.41C165.752 175.41 165.795 175.44 165.812 175.485C168.805 183.292 168.795 191.933 165.783 199.735C153.067 225.81 123.258 213.093 121.158 202.71C120.475 194.91 117.066 187.601 111.53 182.064C105.993 176.528 98.6833 173.119 90.8834 172.435C80.5001 170.277 67.5501 140.527 93.8001 127.752C101.633 124.764 110.292 124.764 118.125 127.752C123.297 128.975 128.694 128.875 133.817 127.46C142.975 126.06 152.133 122.327 161.758 131.952C171.383 141.577 167.592 150.794 166.25 159.894C164.787 164.906 164.561 170.198 165.589 175.317C165.6 175.371 165.648 175.41 165.703 175.41V175.41ZM202.961 187.427C202.981 187.427 202.987 187.455 202.968 187.462C200.055 188.587 196.884 188.87 193.818 188.276C190.72 187.676 187.856 186.207 185.562 184.04C183.268 181.873 181.638 179.098 180.862 176.039C180.087 172.979 180.198 169.763 181.183 166.765C182.168 163.767 183.986 161.111 186.425 159.107C188.863 157.104 191.822 155.836 194.954 155.452C198.086 155.068 201.263 155.584 204.114 156.938C206.964 158.293 209.37 160.431 211.05 163.102C213.162 167.416 213.489 172.388 211.96 176.941C210.44 181.469 207.206 185.221 202.953 187.392C202.935 187.4 202.941 187.427 202.961 187.427V187.427ZM206.589 140.818C206.596 140.812 206.604 140.824 206.597 140.83C198.203 148.347 186.473 148.906 180.367 142.102C174.242 135.277 176.167 123.552 184.567 116.027C192.967 108.502 204.75 107.86 210.875 114.685C216.981 121.489 214.971 133.219 206.58 140.805C206.573 140.812 206.581 140.823 206.589 140.818V140.818Z" fill="#50207D"/>
</svg>
